<svg width="25" height="24" viewBox="0 0 25 24" fill="none" xmlns="http://www.w3.org/2000/svg">
<path d="M22.487 15.7761V9.28414C22.487 9.28339 22.487 9.28264 22.487 9.28189C22.487 8.71939 22.1697 8.22139 21.659 7.98364L12.8315 3.86464C12.2435 3.58939 11.5677 3.58939 10.9782 3.86464L2.15147 7.98364C1.64072 8.22139 1.32422 8.71939 1.32422 9.28189C1.32422 9.84514 1.64072 10.3431 2.15147 10.5809L4.22972 11.5506V14.7516C4.22972 15.8031 4.79522 16.7826 5.70722 17.3076L7.40222 18.2856C8.79122 19.0851 10.3482 19.4864 11.9052 19.4864C13.463 19.4864 15.02 19.0859 16.409 18.2856L18.1047 17.3076C19.0152 16.7826 19.5815 15.8024 19.5815 14.7516V11.5506L21.137 10.8246V15.7761C20.4642 15.8946 19.9497 16.4796 19.9497 17.1869V18.9066C19.9497 19.6979 20.5932 20.3414 21.3852 20.3414H22.2387C23.03 20.3414 23.6742 19.6979 23.6742 18.9066V17.1869C23.6742 16.4804 23.1605 15.8946 22.487 15.7761ZM18.2322 14.7524C18.2322 15.3231 17.9247 15.8541 17.4312 16.1391L15.7355 17.1164C13.3737 18.4776 10.439 18.4784 8.07647 17.1171L6.38147 16.1399C5.88722 15.8541 5.57972 15.3231 5.57972 14.7524V12.1806L10.979 14.6999C11.2737 14.8379 11.5895 14.9061 11.906 14.9061C12.2217 14.9061 12.5382 14.8371 12.8322 14.6999L18.2315 12.1806L18.2322 14.7524ZM21.0897 9.35839L12.2622 13.4774C12.0357 13.5839 11.7762 13.5831 11.5497 13.4774L2.72222 9.35839C2.70797 9.35164 2.67422 9.33514 2.67422 9.28189C2.67422 9.22939 2.70797 9.21289 2.72222 9.20614L11.5497 5.08714C11.663 5.03464 11.7845 5.00839 11.906 5.00839C12.0275 5.00839 12.149 5.03464 12.2622 5.08714L21.0897 9.20614C21.1047 9.21289 21.1377 9.22864 21.1377 9.28189C21.1377 9.33514 21.104 9.35164 21.0897 9.35839ZM22.3242 18.9066C22.3242 18.9539 22.286 18.9906 22.2387 18.9906H21.3852C21.338 18.9906 21.2997 18.9531 21.2997 18.9066V17.1869C21.2997 17.1396 21.338 17.1021 21.3852 17.1021H22.2387C22.286 17.1021 22.3242 17.1404 22.3242 17.1869V18.9066Z" fill="#009D77"/>
</svg>
